<mxfile host="app.diagrams.net" modified="2023-10-29T15:53:50.909Z" agent="Mozilla/5.0 (Windows NT 10.0; Win64; x64) AppleWebKit/537.36 (KHTML, like Gecko) Chrome/118.0.0.0 Safari/537.36 Edg/118.0.2088.76" etag="sG5QEUrpryiqZiJfYOvY" version="22.0.8" type="github">
  <diagram name="Page-1" id="Q5Q5RFiGnW59D8GDFUN4">
    <mxGraphModel dx="973" dy="1643" grid="1" gridSize="10" guides="1" tooltips="1" connect="1" arrows="1" fold="1" page="1" pageScale="1" pageWidth="850" pageHeight="1100" math="0" shadow="0">
      <root>
        <mxCell id="0" />
        <mxCell id="1" parent="0" />
        <mxCell id="5V0ruPGhY-4B58V5-Gp4-6" value="Prikupljanje Podataka&amp;nbsp;" style="rounded=0;whiteSpace=wrap;html=1;fontFamily=Times New Roman;" vertex="1" parent="1">
          <mxGeometry x="120" y="118" width="160" height="80" as="geometry" />
        </mxCell>
        <mxCell id="5V0ruPGhY-4B58V5-Gp4-14" value="Podaci o&amp;nbsp; Kamionu" style="text;html=1;align=center;verticalAlign=middle;resizable=0;points=[];autosize=1;strokeColor=none;fillColor=none;fontSize=10;" vertex="1" parent="1">
          <mxGeometry x="10" y="98" width="110" height="30" as="geometry" />
        </mxCell>
        <mxCell id="5V0ruPGhY-4B58V5-Gp4-16" value="&lt;span style=&quot;font-size: 10px;&quot;&gt;Vozac&lt;/span&gt;" style="text;html=1;align=center;verticalAlign=middle;resizable=0;points=[];autosize=1;strokeColor=none;fillColor=none;" vertex="1" parent="1">
          <mxGeometry x="30" y="118" width="50" height="30" as="geometry" />
        </mxCell>
        <mxCell id="5V0ruPGhY-4B58V5-Gp4-21" value="Teret" style="text;html=1;align=center;verticalAlign=middle;resizable=0;points=[];autosize=1;strokeColor=none;fillColor=none;fontSize=10;" vertex="1" parent="1">
          <mxGeometry x="30" y="150" width="50" height="30" as="geometry" />
        </mxCell>
        <mxCell id="5V0ruPGhY-4B58V5-Gp4-22" value="Trenutni Polozaj" style="text;html=1;align=center;verticalAlign=middle;resizable=0;points=[];autosize=1;strokeColor=none;fillColor=none;fontSize=10;" vertex="1" parent="1">
          <mxGeometry x="20" y="180" width="100" height="30" as="geometry" />
        </mxCell>
        <mxCell id="5V0ruPGhY-4B58V5-Gp4-23" value="Aktivnost" style="rounded=0;whiteSpace=wrap;html=1;" vertex="1" parent="1">
          <mxGeometry x="600" y="10" width="150" height="70" as="geometry" />
        </mxCell>
        <mxCell id="5V0ruPGhY-4B58V5-Gp4-25" value="" style="endArrow=none;html=1;rounded=0;" edge="1" parent="1">
          <mxGeometry width="50" height="50" relative="1" as="geometry">
            <mxPoint x="480" y="40" as="sourcePoint" />
            <mxPoint x="600" y="40" as="targetPoint" />
          </mxGeometry>
        </mxCell>
        <mxCell id="5V0ruPGhY-4B58V5-Gp4-26" value="Ulazna inf" style="text;html=1;align=center;verticalAlign=middle;resizable=0;points=[];autosize=1;strokeColor=none;fillColor=none;" vertex="1" parent="1">
          <mxGeometry x="460" y="18" width="80" height="30" as="geometry" />
        </mxCell>
        <mxCell id="5V0ruPGhY-4B58V5-Gp4-29" value="" style="endArrow=none;html=1;rounded=0;" edge="1" parent="1">
          <mxGeometry width="50" height="50" relative="1" as="geometry">
            <mxPoint x="750" y="40" as="sourcePoint" />
            <mxPoint x="830" y="40" as="targetPoint" />
          </mxGeometry>
        </mxCell>
        <mxCell id="5V0ruPGhY-4B58V5-Gp4-30" value="&amp;nbsp; &amp;nbsp; &amp;nbsp; &amp;nbsp;Izlazna inf&amp;nbsp;" style="text;html=1;align=center;verticalAlign=middle;resizable=0;points=[];autosize=1;strokeColor=none;fillColor=none;" vertex="1" parent="1">
          <mxGeometry x="720" y="18" width="100" height="30" as="geometry" />
        </mxCell>
        <mxCell id="5V0ruPGhY-4B58V5-Gp4-31" value="" style="endArrow=none;html=1;rounded=0;" edge="1" parent="1">
          <mxGeometry width="50" height="50" relative="1" as="geometry">
            <mxPoint x="680" y="10" as="sourcePoint" />
            <mxPoint x="680" y="-80" as="targetPoint" />
          </mxGeometry>
        </mxCell>
        <mxCell id="5V0ruPGhY-4B58V5-Gp4-33" value="&amp;nbsp; Kontrola" style="text;html=1;align=center;verticalAlign=middle;resizable=0;points=[];autosize=1;strokeColor=none;fillColor=none;" vertex="1" parent="1">
          <mxGeometry x="665" y="-72" width="70" height="30" as="geometry" />
        </mxCell>
        <mxCell id="5V0ruPGhY-4B58V5-Gp4-34" value="" style="endArrow=none;html=1;rounded=0;" edge="1" parent="1">
          <mxGeometry width="50" height="50" relative="1" as="geometry">
            <mxPoint x="680" y="160" as="sourcePoint" />
            <mxPoint x="680" y="80" as="targetPoint" />
          </mxGeometry>
        </mxCell>
        <mxCell id="5V0ruPGhY-4B58V5-Gp4-35" value="&amp;nbsp; &amp;nbsp; &amp;nbsp; &amp;nbsp; Mehanizam" style="text;html=1;align=center;verticalAlign=middle;resizable=0;points=[];autosize=1;strokeColor=none;fillColor=none;" vertex="1" parent="1">
          <mxGeometry x="645" y="98" width="110" height="30" as="geometry" />
        </mxCell>
        <mxCell id="5V0ruPGhY-4B58V5-Gp4-37" value="" style="endArrow=classic;html=1;rounded=0;" edge="1" parent="1">
          <mxGeometry width="50" height="50" relative="1" as="geometry">
            <mxPoint x="40" y="118" as="sourcePoint" />
            <mxPoint x="120" y="118" as="targetPoint" />
          </mxGeometry>
        </mxCell>
        <mxCell id="5V0ruPGhY-4B58V5-Gp4-40" value="" style="endArrow=classic;html=1;rounded=0;" edge="1" parent="1">
          <mxGeometry width="50" height="50" relative="1" as="geometry">
            <mxPoint x="40" y="140" as="sourcePoint" />
            <mxPoint x="120" y="140" as="targetPoint" />
          </mxGeometry>
        </mxCell>
        <mxCell id="5V0ruPGhY-4B58V5-Gp4-41" value="" style="endArrow=classic;html=1;rounded=0;" edge="1" parent="1">
          <mxGeometry width="50" height="50" relative="1" as="geometry">
            <mxPoint x="40" y="170" as="sourcePoint" />
            <mxPoint x="120" y="170" as="targetPoint" />
          </mxGeometry>
        </mxCell>
        <mxCell id="5V0ruPGhY-4B58V5-Gp4-42" value="" style="endArrow=classic;html=1;rounded=0;" edge="1" parent="1">
          <mxGeometry width="50" height="50" relative="1" as="geometry">
            <mxPoint x="40" y="200" as="sourcePoint" />
            <mxPoint x="120" y="200" as="targetPoint" />
          </mxGeometry>
        </mxCell>
        <mxCell id="5V0ruPGhY-4B58V5-Gp4-43" value="" style="endArrow=classic;html=1;rounded=0;" edge="1" parent="1">
          <mxGeometry width="50" height="50" relative="1" as="geometry">
            <mxPoint x="140" y="38" as="sourcePoint" />
            <mxPoint x="140" y="118" as="targetPoint" />
          </mxGeometry>
        </mxCell>
        <mxCell id="5V0ruPGhY-4B58V5-Gp4-47" value="" style="endArrow=classic;html=1;rounded=0;" edge="1" parent="1">
          <mxGeometry width="50" height="50" relative="1" as="geometry">
            <mxPoint x="260" y="40" as="sourcePoint" />
            <mxPoint x="260" y="118" as="targetPoint" />
          </mxGeometry>
        </mxCell>
        <mxCell id="5V0ruPGhY-4B58V5-Gp4-49" value="" style="endArrow=classic;html=1;rounded=0;" edge="1" parent="1">
          <mxGeometry width="50" height="50" relative="1" as="geometry">
            <mxPoint x="140" y="278" as="sourcePoint" />
            <mxPoint x="140" y="198" as="targetPoint" />
          </mxGeometry>
        </mxCell>
        <mxCell id="5V0ruPGhY-4B58V5-Gp4-50" value="" style="endArrow=classic;html=1;rounded=0;" edge="1" parent="1">
          <mxGeometry width="50" height="50" relative="1" as="geometry">
            <mxPoint x="199" y="278" as="sourcePoint" />
            <mxPoint x="199" y="198" as="targetPoint" />
          </mxGeometry>
        </mxCell>
        <mxCell id="5V0ruPGhY-4B58V5-Gp4-51" value="" style="endArrow=classic;html=1;rounded=0;" edge="1" parent="1">
          <mxGeometry width="50" height="50" relative="1" as="geometry">
            <mxPoint x="259" y="278" as="sourcePoint" />
            <mxPoint x="259" y="198" as="targetPoint" />
          </mxGeometry>
        </mxCell>
        <mxCell id="5V0ruPGhY-4B58V5-Gp4-52" value="Senzori" style="text;html=1;align=center;verticalAlign=middle;resizable=0;points=[];autosize=1;strokeColor=none;fillColor=none;fontSize=12;" vertex="1" parent="1">
          <mxGeometry x="80" y="250" width="60" height="30" as="geometry" />
        </mxCell>
        <mxCell id="5V0ruPGhY-4B58V5-Gp4-54" value="IoT" style="text;html=1;align=center;verticalAlign=middle;resizable=0;points=[];autosize=1;strokeColor=none;fillColor=none;" vertex="1" parent="1">
          <mxGeometry x="220" y="248" width="40" height="30" as="geometry" />
        </mxCell>
        <mxCell id="5V0ruPGhY-4B58V5-Gp4-55" value="" style="endArrow=classic;html=1;rounded=0;" edge="1" parent="1">
          <mxGeometry width="50" height="50" relative="1" as="geometry">
            <mxPoint x="280" y="127.17" as="sourcePoint" />
            <mxPoint x="380" y="127.17" as="targetPoint" />
          </mxGeometry>
        </mxCell>
        <mxCell id="5V0ruPGhY-4B58V5-Gp4-57" value="&amp;nbsp; &amp;nbsp; &amp;nbsp;Lokacija" style="text;html=1;align=center;verticalAlign=middle;resizable=0;points=[];autosize=1;strokeColor=none;fillColor=none;" vertex="1" parent="1">
          <mxGeometry x="260" y="98" width="80" height="30" as="geometry" />
        </mxCell>
        <mxCell id="5V0ruPGhY-4B58V5-Gp4-58" value="" style="endArrow=classic;html=1;rounded=0;" edge="1" parent="1">
          <mxGeometry width="50" height="50" relative="1" as="geometry">
            <mxPoint x="280" y="157.17000000000002" as="sourcePoint" />
            <mxPoint x="380" y="157.17000000000002" as="targetPoint" />
          </mxGeometry>
        </mxCell>
        <mxCell id="5V0ruPGhY-4B58V5-Gp4-59" value="Stanje tereta" style="text;html=1;align=center;verticalAlign=middle;resizable=0;points=[];autosize=1;strokeColor=none;fillColor=none;" vertex="1" parent="1">
          <mxGeometry x="270" y="128" width="90" height="30" as="geometry" />
        </mxCell>
        <mxCell id="5V0ruPGhY-4B58V5-Gp4-61" value="ELD" style="text;html=1;align=center;verticalAlign=middle;resizable=0;points=[];autosize=1;strokeColor=none;fillColor=none;" vertex="1" parent="1">
          <mxGeometry x="155" y="248" width="50" height="30" as="geometry" />
        </mxCell>
        <mxCell id="5V0ruPGhY-4B58V5-Gp4-62" value="&amp;nbsp; &amp;nbsp; &amp;nbsp; &amp;nbsp; &amp;nbsp; &amp;nbsp;Pracenje" style="text;html=1;align=center;verticalAlign=middle;resizable=0;points=[];autosize=1;strokeColor=none;fillColor=none;" vertex="1" parent="1">
          <mxGeometry x="95" y="48" width="110" height="30" as="geometry" />
        </mxCell>
        <mxCell id="5V0ruPGhY-4B58V5-Gp4-63" value="Kontrola" style="text;html=1;align=center;verticalAlign=middle;resizable=0;points=[];autosize=1;strokeColor=none;fillColor=none;" vertex="1" parent="1">
          <mxGeometry x="255" y="50" width="70" height="30" as="geometry" />
        </mxCell>
        <mxCell id="5V0ruPGhY-4B58V5-Gp4-64" value="RUTA" style="rounded=0;whiteSpace=wrap;html=1;" vertex="1" parent="1">
          <mxGeometry x="440" y="198" width="160" height="82" as="geometry" />
        </mxCell>
        <mxCell id="5V0ruPGhY-4B58V5-Gp4-65" value="" style="endArrow=classic;html=1;rounded=0;" edge="1" parent="1">
          <mxGeometry width="50" height="50" relative="1" as="geometry">
            <mxPoint x="280" y="190" as="sourcePoint" />
            <mxPoint x="380" y="190" as="targetPoint" />
          </mxGeometry>
        </mxCell>
        <mxCell id="5V0ruPGhY-4B58V5-Gp4-66" value="&amp;nbsp; &amp;nbsp; &amp;nbsp; &amp;nbsp; &amp;nbsp; &amp;nbsp; &amp;nbsp; &amp;nbsp; &amp;nbsp;Odredjivanje rute" style="text;html=1;align=center;verticalAlign=middle;resizable=0;points=[];autosize=1;strokeColor=none;fillColor=none;" vertex="1" parent="1">
          <mxGeometry x="215" y="168" width="170" height="30" as="geometry" />
        </mxCell>
      </root>
    </mxGraphModel>
  </diagram>
</mxfile>
